<?xml version="1.0" encoding="utf-8"?>
<!-- Generator: Adobe Illustrator 19.2.1, SVG Export Plug-In . SVG Version: 6.00 Build 0)  -->
<svg version="1.1" id="图层_1" xmlns="http://www.w3.org/2000/svg" xmlns:xlink="http://www.w3.org/1999/xlink" x="0px" y="0px"
	 viewBox="0 0 24 24" style="enable-background:new 0 0 24 24;" xml:space="preserve">
<style type="text/css">
	.st0{fill:none;}
</style>
<path class="st0" d="M0,0h24v24H0V0z"/>
<path d="M5,19c0,1.1,0.9,2,2,2h10c1.1,0,2-0.9,2-2V7H5V19z M8.5,11.9l1.4-1.4l2.1,2.1l2.1-2.1l1.4,1.4L13.4,14l2.1,2.1l-1.4,1.4
	L12,15.4l-2.1,2.1l-1.4-1.4l2.1-2.1L8.5,11.9z M15.5,4l-1-1h-5l-1,1H4v2h16V4H15.5z"/>
<path class="st0" d="M0,0h24v24H0V0z"/>
</svg>
