<?xml version="1.0" encoding="utf-8"?>
<!-- Generator: Adobe Illustrator 19.2.1, SVG Export Plug-In . SVG Version: 6.00 Build 0)  -->
<svg version="1.1" id="图层_1" xmlns="http://www.w3.org/2000/svg" xmlns:xlink="http://www.w3.org/1999/xlink" x="0px" y="0px"
	 viewBox="0 0 24 24" style="enable-background:new 0 0 24 24;" xml:space="preserve">
<style type="text/css">
	.st0{fill:none;}
</style>
<path class="st0" d="M0,0h24v24H0V0z"/>
<path d="M19,8l-4,4h3c0,3.3-2.7,6-6,6c-1,0-2-0.2-2.8-0.7l-1.5,1.5C9,19.5,10.4,20,12,20c4.4,0,8-3.6,8-8h3L19,8z M6,12
	c0-3.3,2.7-6,6-6c1,0,2,0.2,2.8,0.7l1.5-1.5C15,4.5,13.6,4,12,4c-4.4,0-8,3.6-8,8H1l4,4l4-4H6z"/>
</svg>
